<?xml version="1.0" encoding="us-ascii" standalone="no"?><svg xmlns="http://www.w3.org/2000/svg" xmlns:xlink="http://www.w3.org/1999/xlink" contentStyleType="text/css" height="505.5066px" preserveAspectRatio="none" style="width:604px;height:505px;background:#FFFFFF;" version="1.1" viewBox="0 0 604 505" width="604.6256px" zoomAndPan="magnify"><defs/><g><!--cluster ForcefulShutdown--><g id="cluster_ForcefulShutdown"><path d="M425.8811,271.5859 L587.7753,271.5859 A8.2599,8.2599 0 0 1 596.0352,279.8458 L596.0352,285.6587 L417.6211,285.6587 L417.6211,279.8458 A8.2599,8.2599 0 0 1 425.8811,271.5859 " fill="#F1F1F1" style="stroke:#F1F1F1;stroke-width:0.6607929515418502;"/><rect fill="none" height="153.6344" rx="8.2599" ry="8.2599" style="stroke:#181818;stroke-width:0.3303964757709251;" width="178.4141" x="417.6211" y="271.5859"/><line style="stroke:#181818;stroke-width:0.3303964757709251;" x1="417.6211" x2="596.0352" y1="285.6587" y2="285.6587"/><text fill="#000000" font-family="sans-serif" font-size="9.2511" lengthAdjust="spacing" textLength="85.2423" x="464.207" y="282.8162">Forceful Shutdown</text></g><!--cluster HostPowerCycle--><g id="cluster_HostPowerCycle"><path d="M60.4626,4.6256 L236.8943,4.6256 A8.2599,8.2599 0 0 1 245.1542,12.8855 L245.1542,18.6984 L52.2026,18.6984 L52.2026,12.8855 A8.2599,8.2599 0 0 1 60.4626,4.6256 " fill="#F1F1F1" style="stroke:#F1F1F1;stroke-width:0.6607929515418502;"/><rect fill="none" height="245.1542" rx="8.2599" ry="8.2599" style="stroke:#181818;stroke-width:0.3303964757709251;" width="192.9515" x="52.2026" y="4.6256"/><line style="stroke:#181818;stroke-width:0.3303964757709251;" x1="52.2026" x2="245.1542" y1="18.6984" y2="18.6984"/><text fill="#000000" font-family="sans-serif" font-size="9.2511" lengthAdjust="spacing" textLength="79.2952" x="109.0308" y="15.8558">Host Power Cycle</text></g><!--cluster HostMainPowerOn--><g id="cluster_HostMainPowerOn"><path d="M135.1322,167.1806 L221.0352,167.1806 A8.2599,8.2599 0 0 1 229.2952,175.4405 L229.2952,181.2534 L126.8722,181.2534 L126.8722,175.4405 A8.2599,8.2599 0 0 1 135.1322,167.1806 " fill="#F1F1F1" style="stroke:#F1F1F1;stroke-width:0.6607929515418502;"/><rect fill="none" height="66.7401" rx="8.2599" ry="8.2599" style="stroke:#181818;stroke-width:0.3303964757709251;" width="102.4229" x="126.8722" y="167.1806"/><line style="stroke:#181818;stroke-width:0.3303964757709251;" x1="126.8722" x2="229.2952" y1="181.2534" y2="181.2534"/><text fill="#000000" font-family="sans-serif" font-size="9.2511" lengthAdjust="spacing" textLength="91.8502" x="132.1586" y="178.4109">Host Main Power On</text></g><g id="ForcefulShutdown.Wait4ShutdownOk"><rect fill="#F1F1F1" height="34.7536" rx="8.2599" ry="8.2599" style="stroke:#181818;stroke-width:0.3303964757709251;" width="157.2687" x="428.1938" y="294.7137"/><line style="stroke:#181818;stroke-width:0.3303964757709251;" x1="428.1938" x2="585.4626" y1="322.8593" y2="322.8593"/><text fill="#000000" font-family="sans-serif" font-size="9.2511" lengthAdjust="spacing" textLength="124.2291" x="444.7137" y="306.6047">Host Wait For Shutdown Ok</text><text fill="#000000" font-family="sans-serif" font-size="9.2511" lengthAdjust="spacing" textLength="144.0529" x="434.8018" y="317.3736">&#171;powerStateWaitForShutdown&#187;</text></g><g id="ForcefulShutdown.forceOffPlaceholder"><rect fill="#F1F1F1" height="33.0396" rx="8.2599" ry="8.2599" style="stroke:#181818;stroke-width:0.3303964757709251;" width="33.0396" x="428.1938" y="381.6079"/><line style="stroke:#181818;stroke-width:0.3303964757709251;" x1="428.1938" x2="461.2335" y1="398.9847" y2="398.9847"/><text fill="#000000" font-family="sans-serif" font-size="9.2511" lengthAdjust="spacing" textLength="7.9295" x="440.7489" y="393.499">...</text></g><g id="HostPowerCycle.HostTransitionToCycleOff"><rect fill="#F1F1F1" height="34.7536" rx="8.2599" ry="8.2599" style="stroke:#181818;stroke-width:0.3303964757709251;" width="171.1454" x="63.1057" y="27.7533"/><line style="stroke:#181818;stroke-width:0.3303964757709251;" x1="63.1057" x2="234.2511" y1="55.899" y2="55.899"/><text fill="#000000" font-family="sans-serif" font-size="9.2511" lengthAdjust="spacing" textLength="156.6079" x="70.3744" y="39.6444">Host Transition To Cycle Power Off</text><text fill="#000000" font-family="sans-serif" font-size="9.2511" lengthAdjust="spacing" textLength="157.9295" x="69.7137" y="50.4132">&#171;powerStateTransitionToCycleOff&#187;</text></g><g id="HostPowerCycle.powercycleplaceholder"><rect fill="#F1F1F1" height="33.0396" rx="8.2599" ry="8.2599" style="stroke:#181818;stroke-width:0.3303964757709251;" width="33.0396" x="165.1982" y="103.0837"/><line style="stroke:#181818;stroke-width:0.3303964757709251;" x1="165.1982" x2="198.2379" y1="120.4605" y2="120.4605"/><text fill="#000000" font-family="sans-serif" font-size="9.2511" lengthAdjust="spacing" textLength="7.9295" x="177.7533" y="114.9747">...</text></g><g id="HostPowerCycle.HostMainPowerOn.hostMainPowerOnPlaceholder"><rect fill="#F1F1F1" height="33.0396" rx="8.2599" ry="8.2599" style="stroke:#181818;stroke-width:0.3303964757709251;" width="33.0396" x="182.3789" y="190.3084"/><line style="stroke:#181818;stroke-width:0.3303964757709251;" x1="182.3789" x2="215.4185" y1="207.6852" y2="207.6852"/><text fill="#000000" font-family="sans-serif" font-size="9.2511" lengthAdjust="spacing" textLength="7.9295" x="194.9339" y="202.1994">...</text></g><ellipse cx="262.3348" cy="206.8282" fill="#222222" rx="6.6079" ry="6.6079" style="stroke:#222222;stroke-width:0.6607929515418502;"/><g id="HostPowerOn"><rect fill="#F1F1F1" height="34.7536" rx="8.2599" ry="8.2599" style="stroke:#181818;stroke-width:0.3303964757709251;" width="90.5286" x="205.837" y="294.7137"/><line style="stroke:#181818;stroke-width:0.3303964757709251;" x1="205.837" x2="296.3656" y1="322.8593" y2="322.8593"/><text fill="#000000" font-family="sans-serif" font-size="9.2511" lengthAdjust="spacing" textLength="68.0617" x="217.0705" y="306.6047">Host Power On</text><text fill="#000000" font-family="sans-serif" font-size="9.2511" lengthAdjust="spacing" textLength="77.3128" x="212.4449" y="317.3736">&#171;powerStateOn&#187;</text></g><g id="GracefulTransitionToOff"><rect fill="#F1F1F1" height="34.7536" rx="8.2599" ry="8.2599" style="stroke:#181818;stroke-width:0.3303964757709251;" width="184.3612" x="122.5771" y="380.6167"/><line style="stroke:#181818;stroke-width:0.3303964757709251;" x1="122.5771" x2="306.9383" y1="408.7624" y2="408.7624"/><text fill="#000000" font-family="sans-serif" font-size="9.2511" lengthAdjust="spacing" textLength="138.7665" x="145.3744" y="392.5078">Host Graceful Transition To Off</text><text fill="#000000" font-family="sans-serif" font-size="9.2511" lengthAdjust="spacing" textLength="171.1454" x="129.185" y="403.2766">&#171;powerStateGracefulTransitionToOff&#187;</text></g><g id="HostPowerOff"><rect fill="#F1F1F1" height="34.7536" rx="8.2599" ry="8.2599" style="stroke:#181818;stroke-width:0.3303964757709251;" width="89.8678" x="169.8238" y="466.8502"/><line style="stroke:#181818;stroke-width:0.3303964757709251;" x1="169.8238" x2="259.6916" y1="494.9959" y2="494.9959"/><text fill="#000000" font-family="sans-serif" font-size="9.2511" lengthAdjust="spacing" textLength="67.4009" x="181.0573" y="478.7413">Host Power Off</text><text fill="#000000" font-family="sans-serif" font-size="9.2511" lengthAdjust="spacing" textLength="76.652" x="176.4317" y="489.5101">&#171;powerStateOff&#187;</text></g><!--link *start* to HostPowerOn--><g id="link_*start*_HostPowerOn"><path d="M261.6674,213.6872 C259.9758,229.3546 255.9082,267.0229 253.3576,290.6331 " fill="none" id="*start*-to-HostPowerOn" style="stroke:#008000;stroke-width:0.6607929515418502;"/><polygon fill="#008000" points="252.9317,294.5749,256.1984,288.9461,253.2866,291.29,250.9426,288.3783,252.9317,294.5749" style="stroke:#008000;stroke-width:0.6607929515418502;"/></g><!--link Wait4ShutdownOk to forceOffPlaceholder--><g id="link_Wait4ShutdownOk_forceOffPlaceholder"><path d="M547.315,329.7885 C561.3833,338.1476 571.6982,348.978 562.9956,360.793 C539.3392,392.9009 491.8214,397.6968 465.2642,397.928 " fill="none" id="Wait4ShutdownOk-to-forceOffPlaceholder" style="stroke:#181818;stroke-width:0.6607929515418502;"/><polygon fill="#181818" points="461.2996,397.9626,467.2695,400.5538,464.6034,397.9338,467.2235,395.2677,461.2996,397.9626" style="stroke:#181818;stroke-width:0.6607929515418502;"/></g><!--link forceOffPlaceholder to HostPowerOn--><g id="link_forceOffPlaceholder_HostPowerOn"><path d="M432.2379,381.4361 C423.2048,370.8833 410.1145,357.5881 395.815,349.5595 C365.0815,332.2996 330.0727,323.6737 300.337,318.7706 " fill="none" id="forceOffPlaceholder-to-HostPowerOn" style="stroke:#181818;stroke-width:0.6607929515418502;"/><polygon fill="#181818" points="296.4251,318.1256,301.863,321.7011,299.6851,318.6631,302.723,316.4851,296.4251,318.1256" style="stroke:#181818;stroke-width:0.6607929515418502;"/></g><!--link forceOffPlaceholder to HostPowerOff--><g id="link_forceOffPlaceholder_HostPowerOff"><path d="M428.0947,406.9758 C407.0551,417.152 369.5485,434.6828 336.3436,447.0264 C311.4383,456.2841 286.8569,463.8668 263.7688,470.4483 " fill="none" id="forceOffPlaceholder-to-HostPowerOff" style="stroke:#181818;stroke-width:0.6607929515418502;"/><polygon fill="#181818" points="259.9559,471.5352,266.3998,472.4468,263.1333,470.6295,264.9507,467.363,259.9559,471.5352" style="stroke:#181818;stroke-width:0.6607929515418502;"/></g><!--link HostTransitionToCycleOff to powercycleplaceholder--><g id="link_HostTransitionToCycleOff_powercycleplaceholder"><path d="M156.3436,62.8612 C161.7952,74.9075 167.4356,87.3858 172.8013,99.2404 " fill="none" id="HostTransitionToCycleOff-to-powercycleplaceholder" style="stroke:#181818;stroke-width:0.6607929515418502;"/><polygon fill="#181818" points="174.4361,102.8524,174.3918,96.3445,173.0737,99.8424,169.5758,98.5243,174.4361,102.8524" style="stroke:#181818;stroke-width:0.6607929515418502;"/></g><!--link powercycleplaceholder to hostMainPowerOnPlaceholder--><g id="link_powercycleplaceholder_hostMainPowerOnPlaceholder"><path d="M184.9097,136.2225 C187.9956,151.652 191.87,171.0109 194.9493,186.4074 " fill="none" id="powercycleplaceholder-to-hostMainPowerOnPlaceholder" style="stroke:#181818;stroke-width:0.6607929515418502;"/><polygon fill="#181818" points="195.7269,190.2952,197.1524,183.9451,195.0789,187.0554,191.9687,184.9819,195.7269,190.2952" style="stroke:#181818;stroke-width:0.6607929515418502;"/></g><!--link hostMainPowerOnPlaceholder to HostPowerOn--><g id="link_hostMainPowerOnPlaceholder_HostPowerOn"><path d="M202.4207,223.4471 C205.1564,234.3568 209.4978,248.967 215.4185,261.0132 C221.2996,272.967 227.4332,282.0554 234.6953,291.4982 " fill="none" id="hostMainPowerOnPlaceholder-to-HostPowerOn" style="stroke:#181818;stroke-width:0.6607929515418502;"/><polygon fill="#181818" points="237.1123,294.641,235.582,288.3154,235.0981,292.022,231.3916,291.5381,237.1123,294.641" style="stroke:#181818;stroke-width:0.6607929515418502;"/></g><!--link hostMainPowerOnPlaceholder to HostPowerOff--><g id="link_hostMainPowerOnPlaceholder_HostPowerOff"><path d="M182.1278,216.4361 C144.9648,237.6211 60.1718,294.0727 75.9912,360.793 C83.9868,394.533 86.5969,405.8855 111.0132,430.5066 C127.3348,446.9604 146.1739,457.7526 166.0308,466.409 " fill="none" id="hostMainPowerOnPlaceholder-to-HostPowerOff" style="stroke:#181818;stroke-width:0.6607929515418502;"/><polygon fill="#181818" points="169.6652,467.9934,165.2698,463.1939,166.6365,466.6731,163.1573,468.0398,169.6652,467.9934" style="stroke:#181818;stroke-width:0.6607929515418502;"/></g><!--link hostMainPowerOnPlaceholder to Wait4ShutdownOk--><g id="link_hostMainPowerOnPlaceholder_Wait4ShutdownOk"><path d="M209.9736,223.5198 C218.2335,234.185 230.4714,247.5661 244.4934,255.0661 C269.7423,268.5661 279.8656,260.6233 307.9295,266.2996 C350.7952,274.9692 394.7367,284.9017 432.7257,293.8026 " fill="none" id="hostMainPowerOnPlaceholder-to-Wait4ShutdownOk" style="stroke:#181818;stroke-width:0.6607929515418502;"/><polygon fill="#181818" points="436.5859,294.707,431.3985,290.7769,433.3691,293.9533,430.1926,295.9238,436.5859,294.707" style="stroke:#181818;stroke-width:0.6607929515418502;"/></g><!--link HostPowerOn to GracefulTransitionToOff--><g id="link_HostPowerOn_GracefulTransitionToOff"><path d="M205.804,316.7643 C162.5551,321.522 101.848,331.2952 87.2247,349.5595 C70.8106,370.0507 88.7414,380.9126 118.6951,387.6263 " fill="none" id="HostPowerOn-to-GracefulTransitionToOff" style="stroke:#008000;stroke-width:0.6607929515418502;"/><polygon fill="#008000" points="122.5639,388.4934,117.3388,384.6135,119.3399,387.7708,116.1826,389.7719,122.5639,388.4934" style="stroke:#008000;stroke-width:0.6607929515418502;"/><text fill="#008000" font-family="sans-serif" font-size="8.5903" lengthAdjust="spacing" textLength="134.141" x="87.8855" y="358.194">Event::gracefulPowerOffRequest</text></g><!--link GracefulTransitionToOff to HostPowerOn--><g id="link_GracefulTransitionToOff_HostPowerOn"><path d="M222.0132,380.5837 C228.3502,365.8414 235.9305,348.1934 242.2675,333.4445 " fill="none" id="GracefulTransitionToOff-to-HostPowerOn" style="stroke:#181818;stroke-width:0.6607929515418502;"/><polygon fill="#181818" points="243.8326,329.8018,239.0564,334.2225,242.5283,332.8374,243.9134,336.3093,243.8326,329.8018" style="stroke:#181818;stroke-width:0.6607929515418502;"/><text fill="#000000" font-family="sans-serif" font-size="8.5903" lengthAdjust="spacing" textLength="154.6256" x="235.2423" y="358.194">Event::gracefulPowerOffTimerExpired</text></g><!--link GracefulTransitionToOff to HostPowerOff--><g id="link_GracefulTransitionToOff_HostPowerOff"><path d="M214.7577,415.7709 C214.7577,430.5793 214.7577,447.9846 214.7577,462.7863 " fill="none" id="GracefulTransitionToOff-to-HostPowerOff" style="stroke:#008000;stroke-width:0.6607929515418502;"/><polygon fill="#008000" points="214.7577,466.7511,217.4009,460.804,214.7577,463.4471,212.1145,460.804,214.7577,466.7511" style="stroke:#008000;stroke-width:0.6607929515418502;"/><text fill="#008000" font-family="sans-serif" font-size="8.5903" lengthAdjust="spacing" textLength="114.978" x="215.4185" y="444.4275">Event::psPowerOKDeAssert</text></g><!--link GracefulTransitionToOff to Wait4ShutdownOk--><g id="link_GracefulTransitionToOff_Wait4ShutdownOk"><path d="M307.1101,382.5991 C335.848,376.9493 367.4273,369.6872 395.815,360.793 C422.359,352.4802 447.5755,341.6262 469.19,331.4566 " fill="none" id="GracefulTransitionToOff-to-Wait4ShutdownOk" style="stroke:#181818;stroke-width:0.6607929515418502;"/><polygon fill="#181818" points="472.7775,329.7687,466.271,329.9089,469.7879,331.1753,468.5215,334.6923,472.7775,329.7687" style="stroke:#181818;stroke-width:0.6607929515418502;"/><text fill="#000000" font-family="sans-serif" font-size="8.5903" lengthAdjust="spacing" textLength="100.4405" x="427.533" y="358.194">Event::powerOffRequest</text></g><!--link GracefulTransitionToOff to HostTransitionToCycleOff--><g id="link_GracefulTransitionToOff_HostTransitionToCycleOff"><path d="M133.8634,380.5903 C74.4185,365.7753 3.9648,342.0661 3.9648,312.8855 C3.9648,118.9427 3.9648,118.9427 3.9648,118.9427 C3.9648,87.3568 28.0207,70.6567 59.263,60.4871 " fill="none" id="GracefulTransitionToOff-to-HostTransitionToCycleOff" style="stroke:#181818;stroke-width:0.6607929515418502;"/><polygon fill="#181818" points="63.033,59.2599,56.5598,58.5873,59.8913,60.2826,58.1961,63.6141,63.033,59.2599" style="stroke:#181818;stroke-width:0.6607929515418502;"/><text fill="#000000" font-family="sans-serif" font-size="8.5903" lengthAdjust="spacing" textLength="111.0132" x="4.6256" y="209.846">Event::powerCycleRequest</text></g><!--SRC=[fLPDYzim4BtxLmpRGw0GxnvA3y4OoZPjOTiw986bR9UYsafiuaYkf3GDPVzx9Lcs9LjE0iqXn3DFRxwUH-4fAZ6ylRk3Ov69F12q0a7X9nM2xY4h64v5GKaGFBr-XkdJgot3c3nFO_X4kLZG8sQ9T7A118ORPGDjX8Hy9r5KgTyhvKn87Dy0uiuv-zX7XbAyEPImPeZmGWM5DOLait696bm7MrC9CkmZNb-2VUAEf4jHdWmcC9rEuGDbTNgh_20oUYImG29NhePxWD1SZRKzzZS0-R7pUKI5KBYEEjcvgIc413H-awQolcbioKxpJXncjvKZTNUWfcQh3Vq-Mhc7OQXX6rMXz2rAsVgSbXbcWSRryfEzYhrWXVNODTvMotKucUIBJv3tfxJ4xdYroGnaydyZIHxMLDDrxUkLt_a70d37L6TrSLY3UFrnEU7Syiw6yD3wCc_6hm-c2b3P0j3GiPJqoFm7rJ6lfntp5rGOfP8mTvzjLRqqRwwkM87QpGJtT5zHcHI6vEldRv1I8gIVWyWnntM1t7wrXnHjQwpeFIL9gUv-r3-ZI3t4yOZI2hBLOgl9bwWerGhsxr6ZkyMg3lfWYSqsNuYqEd61zx2KvGhvNMB4iL_V6gXn1kO6D7xUUBbF8cUcfE7ZVkyEk1fk17i1tz_GeM-lcdwEL7qD3ynW_XiJCPlnGKyVaKZpZ6xNnHwp-PzAthgP4d0hOLHL9ttXpBfxibrDIgXMZvnRUkG-bCb4AIqfcsbaR3BR6dJJlYN-TS1SHBSQ6mTZRFx_1QDXAcvK-Xw_unopBe2fTywO56abw-Lm2wWKc17zIfNqMB-OevcuUkcQtY_DQVKvjalow49KRjUkor6ln71qKRhasjpG_mC0]--></g></svg>